<svg id="Layer_1" data-name="Layer 1" xmlns="http://www.w3.org/2000/svg" viewBox="0 0 3160 477"><defs><style>.cls-1{fill:#c90;}.cls-2{fill:#036;}</style></defs><path class="cls-1" d="M3160,712l-34.3,32c-34.3,32-102.7,96-171.7,117.3-68.3,21.7-137-.3-205-16-69-16.3-138-26.3-206-16C2474.3,840,2406,872,2337,904c-68.4,32-137,64-206,48-68.1-16-137-80-205-90.7-68.9-10.3-137,31.7-172,53.4L1720,936v64H3160Z" transform="translate(0 -712)"/><path class="cls-1" d="M2162,1061l-33.42-21.3c-33.42-21.7-100.06-63.7-167.29-53.4-66.54,10.7-133.48,74.7-199.73,85.4-67.23,10.3-134.45-31.7-200.71-74.7-66.93-43-133.48-85-200.7-85.3-66.65.3-133.48,42.3-200.71,48-66.35,5.3-133.48-26.7-199.73-32C892.58,922,826.23,944,792.13,954.3L759,965v224H2162Z" transform="translate(0 -712)"/><path class="cls-1" d="M0,1059l48-5.3c48-5.7,144-15.7,240-16,96,.3,192,10.3,288-10.7s192-75,288-90.7c96-16.3,192,5.7,288,37.4,96,32.3,192,74.3,240,96l48,21.3v32H0Z" transform="translate(0 -712)"/><path class="cls-2" d="M0,1082l64-5.3c64-5.7,192-15.7,320-42.7s256-69,384-64,256,59,384,37.3C1280,986,1408,890,1536,868.7c128-21.7,256,32.3,320,58.6l64,26.7v160H0Z" transform="translate(0 -712)"/></svg>